<?xml version="1.0" encoding="UTF-8" standalone="yes"?>
<svg xmlns="http://www.w3.org/2000/svg" width="500" height="500" viewBox="-5.6 -5.7 12 12">
	<title>Dolphin icon released to the Public Domain by Sameboat, the Wikimediam.</title>
	<path style="fill:#000;stroke:none" d="
	M 4.26,-4.97
	c 0.39,0.336 -0.75,0.99 -1.1,1.5
	-0.1,0.14 -0.07,0.15 0,0.31
	0.16,0.38 -0.08,1.22 -0.44,1.83
	C 1.95,-0.02 1.16,0.24 0.68,1.25
	0.29,2.05 0.24,2.35 0.014,2.83
	c -0.24,0.51-0.53,0.79 -0.95,1.01
	-0.13,0.07 -0.1,0.07 -4e-8,0.142
	0.34,0.24 0.52,0.22 0.97,0.49
	0.15,0.09 0.15,0.1 -0.02,0.13
	-0.48,0.07 -0.74,0.14 -1.09,0.28
	-0.43,0.18 -0.6,0.25 -1.1,0.55
	-0.13,0.08 -0.15,0.06 -0.11,-0.08
	0.16,-0.53 0.32,-0.99 0.69,-1.36
	0.09,-0.09 0.11,-0.15 0.05,-0.19
	-0.48,-0.34 -0.73,-0.73 -0.87,-1.63
	-0.13,-0.79 -0.17,-1.29 0.22,-2.4
	0.12,-0.35 0.11,-0.34 -0.08,-0.38
	-0.38,-0.079 -0.92,-0.09 -1.69,0.17
	-0.16,0.06 -0.14,-0.01 -0.05,-0.16
	0.53,-0.85 1.31,-1.31 2.08,-1.39
	0.21,-0.02 0.18,-0.02 0.27,-0.14
	0.62,-0.9 1.61,-1.5 2.23,-1.75
	0.51,-0.21 0.89,-0.33 1.5,-0.06
	0.11,0.05 0.17,0.08 0.28,-0.03
	0.63,-0.6 1.63,-1.24 1.89,-1.01
	"/>
</svg>